<svg id="Capa_1" enable-background="new 0 0 512 512" height="512" viewBox="0 0 512 512" width="512" xmlns="http://www.w3.org/2000/svg"><g><g><path d="m103.085 502.641-21.965-68.584c-1.379-4.306-4.754-7.681-9.06-9.06l-68.584-21.965c-3.563-1.141-4.656-5.649-2.01-8.295l141.307-141.307 109.913 109.913-141.306 141.308c-2.646 2.646-7.154 1.554-8.295-2.01z" fill="#e28086"/></g><g><path d="m90.126 462.178 12.959 40.463c1.141 3.563 5.649 4.656 8.295 2.01l141.307-141.307-31.863-31.863z" fill="#dd636e"/></g><g><path d="m408.915 502.641 21.965-68.584c1.379-4.306 4.754-7.681 9.06-9.06l68.584-21.965c3.563-1.141 4.656-5.649 2.01-8.295l-141.308-141.306-109.913 109.913 141.307 141.307c2.646 2.646 7.154 1.554 8.295-2.01z" fill="#e28086"/></g><g><path d="m469.715 415.461 38.808-12.429c3.563-1.141 4.655-5.649 2.01-8.295l-141.307-141.306-30.771 30.771z" fill="#dd636e"/></g><g><path d="m474.148 224.187c0 16.666-11.968 31.763-15.512 47.356-3.66 16.101.485 34.879-6.523 49.405-7.124 14.766-24.463 23.195-34.591 35.879-10.177 12.745-14.571 31.507-27.316 41.684-12.684 10.128-31.934 10.27-46.7 17.394-14.526 7.008-26.595 22.04-42.696 25.7-15.594 3.544-32.956-4.68-49.622-4.68s-34.029 8.225-49.622 4.68c-16.101-3.66-28.17-18.692-42.697-25.7-14.766-7.124-34.017-7.266-46.7-17.394-12.745-10.177-17.139-28.939-27.316-41.684-10.128-12.684-27.467-21.113-34.591-35.879-7.008-14.526-2.863-33.304-6.523-49.405-3.544-15.594-15.512-30.69-15.512-47.356s11.968-31.763 15.512-47.356c3.66-16.101-.485-34.879 6.523-49.405 7.124-14.766 24.463-23.195 34.591-35.879 10.177-12.745 14.571-31.507 27.316-41.684 12.684-10.128 31.934-10.27 46.7-17.394 14.526-7.008 26.595-22.04 42.696-25.7 15.594-3.544 32.956 4.68 49.622 4.68s34.029-8.225 49.622-4.68c16.101 3.66 28.17 18.692 42.697 25.7 14.766 7.124 34.017 7.266 46.7 17.394 12.745 10.177 17.139 28.939 27.316 41.684 10.128 12.684 27.467 21.113 34.591 35.879 7.008 14.526 2.863 33.304 6.523 49.405 3.544 15.594 15.512 30.69 15.512 47.356z" fill="#ffe07d"/></g><g><g><path d="m458.635 176.831c-3.66-16.101.485-34.878-6.523-49.405-4.951-10.263-14.835-17.465-23.805-25.161 2.636 12.754.579 27.334 3.504 40.206 3.544 15.594 15.512 30.69 15.512 47.356 0 16.667-11.968 31.763-15.512 47.356-3.66 16.101.485 34.879-6.523 49.405-7.124 14.766-24.463 23.195-34.591 35.879-10.177 12.745-14.571 31.507-27.316 41.684-12.683 10.128-31.934 10.27-46.7 17.394-14.526 7.008-26.595 22.04-42.696 25.7-15.594 3.544-32.956-4.68-49.622-4.68s-34.029 8.225-49.622 4.68c-16.101-3.66-28.17-18.692-42.697-25.7-12.275-5.922-27.646-7.024-39.771-13.045 5.825 10.814 10.679 22.653 19.894 30.01 12.684 10.128 31.934 10.27 46.7 17.394 14.527 7.008 26.596 22.04 42.697 25.7 15.593 3.544 32.956-4.68 49.622-4.68 16.667 0 34.029 8.225 49.622 4.68 16.101-3.66 28.17-18.692 42.696-25.7 14.766-7.124 34.017-7.266 46.7-17.394 12.745-10.177 17.139-28.939 27.316-41.684 10.128-12.684 27.467-21.113 34.591-35.879 7.008-14.527 2.863-33.304 6.523-49.405 3.544-15.593 15.512-30.69 15.512-47.356s-11.966-31.762-15.511-47.355z" fill="#ffd064"/></g></g><g><circle cx="251.186" cy="224.187" fill="#f4fbff" r="159.369"/></g><g><path d="m353.314 101.848c23.113 27.657 37.029 63.265 37.029 102.127 0 88.017-71.352 159.369-159.369 159.369-38.862 0-74.47-13.917-102.127-37.029 29.234 34.982 73.185 57.242 122.34 57.242 88.017 0 159.369-71.352 159.369-159.369-.001-49.155-22.26-93.106-57.242-122.34z" fill="#e4f6ff"/></g><g><g><path d="m322.756 230.577c0-4.561-2.236-8.598-5.67-11.08-.538-.389-.584-1.16-.089-1.603 3.012-2.7 4.907-6.62 4.907-10.983 0-7.992-6.358-14.494-14.292-14.736v-.012l-40.889-.042c-1.449-.001-2.561-1.282-2.366-2.717.675-4.962 1.388-9.722 1.825-14.508.851-9.333.532-18.564-4.589-26.868-5.606-9.092-14.366-12.243-23.83-8.885-1.67.592-2.366 1.307-2.159 3.223.813 7.487 1.564 14.986 2.059 22.499.14 2.119-.174 4.557-1.129 6.412-6.565 12.759-13.325 25.418-19.962 38.14-1.328 2.545-2.35 5.227-3.054 7.989-.487 1.908-2.226 3.228-4.195 3.228h-15.328c-2.64 0-4.781 2.14-4.781 4.781v55.035c0 2.64 2.14 4.781 4.781 4.781h97.976c7.173 0 13.393-5.384 13.973-12.533.195-2.41-.239-4.7-1.151-6.728-.281-.624.086-1.331.758-1.455 6.361-1.169 11.182-6.738 11.182-13.437 0-2.509-.678-4.859-1.859-6.88-.302-.517-.108-1.175.425-1.447 4.426-2.261 7.457-6.862 7.457-12.174z" fill="#365e7d"/></g></g><g><path d="m251.186 349.278c-68.975 0-125.09-56.115-125.09-125.09 0-68.976 56.115-125.091 125.09-125.091s125.09 56.115 125.09 125.091c0 68.974-56.115 125.09-125.09 125.09zm0-235.683c-60.981 0-110.592 49.612-110.592 110.593s49.611 110.592 110.592 110.592 110.592-49.611 110.592-110.592-49.611-110.593-110.592-110.593z" fill="#ffd064"/></g></g></svg>